<svg width="16" height="16" viewBox="0 0 16 16" fill="none" xmlns="http://www.w3.org/2000/svg">
<g clip-path="url(#clip0)">
<path d="M15.5434 11.3063L12.0434 9.80627C11.8939 9.74255 11.7277 9.72912 11.5699 9.76801C11.4121 9.8069 11.2712 9.896 11.1684 10.0219L9.61844 11.9156C7.18586 10.7687 5.22819 8.81104 4.08125 6.37846L5.975 4.82846C6.10115 4.72586 6.19044 4.58495 6.22934 4.42707C6.26825 4.26919 6.25466 4.10293 6.19063 3.95346L4.69063 0.453459C4.62035 0.292337 4.49605 0.160786 4.33917 0.0814902C4.18229 0.00219429 4.00266 -0.0198762 3.83125 0.0190843L0.58125 0.769084C0.41599 0.807246 0.268545 0.900296 0.16298 1.03305C0.0574141 1.1658 -3.80691e-05 1.33041 1.89256e-08 1.50002C1.89256e-08 9.51565 6.49687 16 14.5 16C14.6697 16.0001 14.8343 15.9427 14.9672 15.8371C15.1 15.7316 15.1931 15.5841 15.2312 15.4188L15.9812 12.1688C16.02 11.9965 15.9974 11.8162 15.9175 11.6588C15.8376 11.5013 15.7053 11.3767 15.5434 11.3063Z" fill="#219653"/>
</g>
<defs>
<clipPath id="clip0">
<rect width="16" height="16" fill="white"/>
</clipPath>
</defs>
</svg>
