<svg width="15" height="15" viewBox="0 0 15 15" fill="none" xmlns="http://www.w3.org/2000/svg">
<path d="M10.3529 1.58829V0.705933H9.29411V1.58829H5.70589V0.705933H4.64707V1.58829H0V14.2942H15V1.58829H10.3529ZM4.64707 2.64711V3.52946H5.70589V2.64711H9.29414V3.35299H10.353V2.64711H13.9412V4.41182H1.05882V2.64711H4.64707ZM1.05882 13.2353V5.47064H13.9412V13.2353H1.05882Z" fill="black"/>
<path d="M5.20562 10.0588H3.44092V11.8235H5.20562V10.0588Z" fill="black"/>
<path d="M8.38238 10.0588H6.61768V11.8235H8.38238V10.0588Z" fill="black"/>
<path d="M11.5587 10.0588H9.79395V11.8235H11.5587V10.0588Z" fill="black"/>
<path d="M8.38238 6.88245H6.61768V8.64714H8.38238V6.88245Z" fill="black"/>
<path d="M11.5587 6.88245H9.79395V8.64714H11.5587V6.88245Z" fill="black"/>
<path d="M5.20562 6.88245H3.44092V8.64714H5.20562V6.88245Z" fill="black"/>
</svg>
