<svg width="13" height="12" viewBox="0 0 13 12" fill="none" xmlns="http://www.w3.org/2000/svg">
<path d="M9.38889 4.5C9.38889 2.42812 7.28767 0.75 4.69444 0.75C2.10122 0.75 0 2.42812 0 4.5C0 5.30391 0.318229 6.04453 0.857639 6.65625C0.555208 7.36406 0.0564236 7.92656 0.0496528 7.93359C0 7.9875 -0.0135417 8.06719 0.0157986 8.1375C0.0451389 8.20781 0.108333 8.25 0.180556 8.25C1.0066 8.25 1.69045 7.96172 2.18247 7.66406C2.9092 8.03203 3.7691 8.25 4.69444 8.25C7.28767 8.25 9.38889 6.57188 9.38889 4.5ZM12.1424 9.65625C12.6818 9.04688 13 8.30391 13 7.5C13 5.93203 11.7925 4.58906 10.0818 4.02891C10.1021 4.18359 10.1111 4.34063 10.1111 4.5C10.1111 6.98203 7.68038 9 4.69444 9C4.45069 9 4.21372 8.98125 3.97899 8.95547C4.68993 10.3031 6.36007 11.25 8.30556 11.25C9.2309 11.25 10.0908 11.0344 10.8175 10.6641C11.3095 10.9617 11.9934 11.25 12.8194 11.25C12.8917 11.25 12.9571 11.2055 12.9842 11.1375C13.0135 11.0695 13 10.9898 12.9503 10.9336C12.9436 10.9266 12.4448 10.3664 12.1424 9.65625Z" fill="black"/>
</svg>
