<svg width="13" height="12" viewBox="0 0 13 12" fill="none" xmlns="http://www.w3.org/2000/svg">
<path d="M11.9167 0.75H1.08333C0.485243 0.75 0 1.25391 0 1.875V10.125C0 10.7461 0.485243 11.25 1.08333 11.25H11.9167C12.5148 11.25 13 10.7461 13 10.125V1.875C13 1.25391 12.5148 0.75 11.9167 0.75ZM3.97222 3C4.76892 3 5.41667 3.67266 5.41667 4.5C5.41667 5.32734 4.76892 6 3.97222 6C3.17552 6 2.52778 5.32734 2.52778 4.5C2.52778 3.67266 3.17552 3 3.97222 3ZM6.5 8.55C6.5 8.79844 6.27431 9 5.99444 9H1.95C1.67014 9 1.44444 8.79844 1.44444 8.55V8.1C1.44444 7.35469 2.12378 6.75 2.96111 6.75H3.07396C3.35156 6.86953 3.65399 6.9375 3.97222 6.9375C4.29045 6.9375 4.59514 6.86953 4.87049 6.75H4.98333C5.82066 6.75 6.5 7.35469 6.5 8.1V8.55ZM11.5556 7.3125C11.5556 7.41563 11.4743 7.5 11.375 7.5H8.125C8.02569 7.5 7.94444 7.41563 7.94444 7.3125V6.9375C7.94444 6.83437 8.02569 6.75 8.125 6.75H11.375C11.4743 6.75 11.5556 6.83437 11.5556 6.9375V7.3125ZM11.5556 5.8125C11.5556 5.91563 11.4743 6 11.375 6H8.125C8.02569 6 7.94444 5.91563 7.94444 5.8125V5.4375C7.94444 5.33437 8.02569 5.25 8.125 5.25H11.375C11.4743 5.25 11.5556 5.33437 11.5556 5.4375V5.8125ZM11.5556 4.3125C11.5556 4.41563 11.4743 4.5 11.375 4.5H8.125C8.02569 4.5 7.94444 4.41563 7.94444 4.3125V3.9375C7.94444 3.83437 8.02569 3.75 8.125 3.75H11.375C11.4743 3.75 11.5556 3.83437 11.5556 3.9375V4.3125Z" fill="black"/>
</svg>
