<svg width="10" height="12" viewBox="0 0 10 12" fill="none" xmlns="http://www.w3.org/2000/svg">
<path d="M7.14286 10.5V11.4375C7.14286 11.7482 6.90301 12 6.60714 12H0.535714C0.239844 12 0 11.7482 0 11.4375V2.8125C0 2.50184 0.239844 2.25 0.535714 2.25H2.14286V9.1875C2.14286 9.91123 2.70359 10.5 3.39286 10.5H7.14286ZM7.14286 2.4375V0H3.39286C3.09699 0 2.85714 0.251836 2.85714 0.5625V9.1875C2.85714 9.49816 3.09699 9.75 3.39286 9.75H9.46429C9.76016 9.75 10 9.49816 10 9.1875V3H7.67857C7.38393 3 7.14286 2.74688 7.14286 2.4375ZM9.8431 1.71026L8.37118 0.164742C8.27072 0.05926 8.13446 7.79991e-07 7.99239 0L7.85714 0V2.25H10V2.10799C10 1.95881 9.94356 1.81575 9.8431 1.71026Z" fill="black"/>
</svg>
