<svg width="9" height="12" viewBox="0 0 9 12" fill="none" xmlns="http://www.w3.org/2000/svg">
<path d="M7.875 1.5H6C6 0.672656 5.32734 0 4.5 0C3.67266 0 3 0.672656 3 1.5H1.125C0.503906 1.5 0 2.00391 0 2.625V10.875C0 11.4961 0.503906 12 1.125 12H7.875C8.49609 12 9 11.4961 9 10.875V2.625C9 2.00391 8.49609 1.5 7.875 1.5ZM2.25 9.9375C1.93828 9.9375 1.6875 9.68672 1.6875 9.375C1.6875 9.06328 1.93828 8.8125 2.25 8.8125C2.56172 8.8125 2.8125 9.06328 2.8125 9.375C2.8125 9.68672 2.56172 9.9375 2.25 9.9375ZM2.25 7.6875C1.93828 7.6875 1.6875 7.43672 1.6875 7.125C1.6875 6.81328 1.93828 6.5625 2.25 6.5625C2.56172 6.5625 2.8125 6.81328 2.8125 7.125C2.8125 7.43672 2.56172 7.6875 2.25 7.6875ZM2.25 5.4375C1.93828 5.4375 1.6875 5.18672 1.6875 4.875C1.6875 4.56328 1.93828 4.3125 2.25 4.3125C2.56172 4.3125 2.8125 4.56328 2.8125 4.875C2.8125 5.18672 2.56172 5.4375 2.25 5.4375ZM4.5 0.9375C4.81172 0.9375 5.0625 1.18828 5.0625 1.5C5.0625 1.81172 4.81172 2.0625 4.5 2.0625C4.18828 2.0625 3.9375 1.81172 3.9375 1.5C3.9375 1.18828 4.18828 0.9375 4.5 0.9375ZM7.5 9.5625C7.5 9.66562 7.41563 9.75 7.3125 9.75H3.9375C3.83437 9.75 3.75 9.66562 3.75 9.5625V9.1875C3.75 9.08438 3.83437 9 3.9375 9H7.3125C7.41563 9 7.5 9.08438 7.5 9.1875V9.5625ZM7.5 7.3125C7.5 7.41563 7.41563 7.5 7.3125 7.5H3.9375C3.83437 7.5 3.75 7.41563 3.75 7.3125V6.9375C3.75 6.83437 3.83437 6.75 3.9375 6.75H7.3125C7.41563 6.75 7.5 6.83437 7.5 6.9375V7.3125ZM7.5 5.0625C7.5 5.16563 7.41563 5.25 7.3125 5.25H3.9375C3.83437 5.25 3.75 5.16563 3.75 5.0625V4.6875C3.75 4.58437 3.83437 4.5 3.9375 4.5H7.3125C7.41563 4.5 7.5 4.58437 7.5 4.6875V5.0625Z" fill="black"/>
</svg>
