<svg width="12" height="12" viewBox="0 0 12 12" fill="none" xmlns="http://www.w3.org/2000/svg">
<path d="M11.8125 5.98901C11.8184 9.19151 9.20672 11.8102 6.00422 11.8125C4.62105 11.8135 3.35055 11.3313 2.35214 10.5255C2.09252 10.316 2.07312 9.92688 2.30904 9.69096L2.57311 9.42689C2.77488 9.22512 3.09701 9.20304 3.32055 9.38039C4.05614 9.9641 4.98705 10.3125 6 10.3125C8.38371 10.3125 10.3125 8.38334 10.3125 6C10.3125 3.61629 8.38334 1.6875 6 1.6875C4.85592 1.6875 3.81682 2.13209 3.04528 2.85778L4.23483 4.04733C4.47108 4.28358 4.30376 4.6875 3.96968 4.6875H0.5625C0.355383 4.6875 0.1875 4.51962 0.1875 4.3125V0.90532C0.1875 0.571242 0.591422 0.403922 0.827672 0.640148L1.98483 1.7973C3.02834 0.800062 4.44262 0.1875 6 0.1875C9.20648 0.1875 11.8066 2.78391 11.8125 5.98901ZM7.57237 7.83551L7.8026 7.53949C7.99334 7.29427 7.94916 6.94085 7.70393 6.75014L6.75 6.00818V3.5625C6.75 3.25184 6.49816 3 6.1875 3H5.8125C5.50184 3 5.25 3.25184 5.25 3.5625V6.74182L6.78302 7.93418C7.02825 8.12489 7.38164 8.08073 7.57237 7.83551Z" fill="black"/>
</svg>
