<svg width="20" height="16" viewBox="0 0 20 16" fill="none" xmlns="http://www.w3.org/2000/svg">
<g clip-path="url(#clip0)">
<path d="M8.38131 11.9187L6.83131 10.0249C6.61881 9.76554 6.26256 9.67803 5.95631 9.80929L2.45631 11.3093C2.12193 11.453 1.94068 11.8124 2.02193 12.1687L2.77193 15.4187C2.85006 15.7562 3.15006 15.9999 3.50318 15.9999C6.65006 15.9999 9.55631 14.9874 11.9313 13.2843L9.43131 11.353C9.09068 11.5562 8.74068 11.7499 8.38131 11.9187ZM19.8063 14.3155L14.8469 10.4843C16.8094 8.01241 18.0001 4.90304 18.0001 1.49991C18.0001 1.14991 17.7594 0.846786 17.4188 0.768661L14.1688 0.0186607C13.8157 -0.0625893 13.4532 0.121786 13.3094 0.453036L11.8094 3.95304C11.6782 4.25929 11.7657 4.61866 12.0251 4.82804L13.9188 6.37804C13.5376 7.19366 13.0469 7.94991 12.4813 8.65304L1.42193 0.106161C1.20318 -0.0625893 0.890681 -0.0250893 0.718806 0.193661L0.106306 0.981161C-0.0624437 1.19991 -0.0249437 1.51241 0.193806 1.68116L18.5813 15.8905C18.8001 16.0593 19.1126 16.0218 19.2844 15.803L19.8969 15.0124C20.0657 14.7999 20.0251 14.4843 19.8063 14.3155Z" fill="#E14141"/>
</g>
<defs>
<clipPath id="clip0">
<rect width="20" height="16" fill="white"/>
</clipPath>
</defs>
</svg>
