<svg width="12" height="9" viewBox="0 0 12 9" fill="none" xmlns="http://www.w3.org/2000/svg">
<path d="M11.8339 4.89812L7.83372 8.83497C7.47656 9.18647 6.85748 8.94042 6.85748 8.4366V6.18697H3.61923C3.30254 6.18697 3.04777 5.93623 3.04777 5.62456V3.37494C3.04777 3.06327 3.30254 2.81253 3.61923 2.81253H6.85748V0.562905C6.85748 0.0614258 7.47418 -0.18697 7.83372 0.164534L11.8339 4.10138C12.0554 4.32166 12.0554 4.67785 11.8339 4.89812ZM4.57166 8.7178V7.78046C4.57166 7.62579 4.44308 7.49925 4.28593 7.49925H2.28583C1.86438 7.49925 1.52389 7.16415 1.52389 6.74938V2.25012C1.52389 1.83535 1.86438 1.50025 2.28583 1.50025H4.28593C4.44308 1.50025 4.57166 1.37371 4.57166 1.21905V0.281702C4.57166 0.12704 4.44308 0.000498399 4.28593 0.000498399H2.28583C1.02386 0.000498399 0 1.00814 0 2.25012V6.74938C0 7.99136 1.02386 8.999 2.28583 8.999H4.28593C4.44308 8.999 4.57166 8.87246 4.57166 8.7178Z" fill="black"/>
</svg>
