<svg width="12" height="12" viewBox="0 0 12 12" fill="none" xmlns="http://www.w3.org/2000/svg">
<path d="M6 12C4.39734 12 2.89061 11.3759 1.75734 10.2427C0.624124 9.10939 0 7.60266 0 6C0 4.39734 0.624124 2.89061 1.75734 1.75734C2.89061 0.624124 4.39734 0 6 0C7.60266 0 9.10939 0.624124 10.2427 1.75734C11.3759 2.89061 12 4.39734 12 6C12 7.60266 11.3759 9.10939 10.2427 10.2427C9.10939 11.3759 7.60266 12 6 12ZM6 0.742268C3.10087 0.742268 0.742268 3.10087 0.742268 6C0.742268 8.89913 3.10087 11.2577 6 11.2577C8.89913 11.2577 11.2577 8.89913 11.2577 6C11.2577 3.10087 8.89913 0.742268 6 0.742268Z" fill="black"/>
<path d="M6.3711 6.3648H2.10313V5.62253H5.62883V2.10309H6.3711V6.3648Z" fill="black"/>
</svg>
