<svg width="12" height="12" viewBox="0 0 12 12" fill="none" xmlns="http://www.w3.org/2000/svg">
<g clip-path="url(#clip0)">
<path d="M5.91449 5.78043C6.70862 5.78043 7.39627 5.49561 7.95813 4.93367C8.51999 4.37181 8.80481 3.68434 8.80481 2.89013C8.80481 2.09618 8.51999 1.40862 7.95804 0.846585C7.39609 0.284819 6.70853 0 5.91449 0C5.12027 0 4.4328 0.284819 3.87094 0.846676C3.30908 1.40853 3.02417 2.09609 3.02417 2.89013C3.02417 3.68434 3.30908 4.3719 3.87103 4.93376C4.43298 5.49552 5.12054 5.78043 5.91449 5.78043Z" fill="#181C21"/>
<path d="M10.9718 9.22737C10.9556 8.99355 10.9228 8.73848 10.8745 8.46914C10.8258 8.19777 10.7631 7.94124 10.688 7.70678C10.6105 7.46444 10.505 7.22512 10.3747 6.99578C10.2393 6.75775 10.0804 6.55047 9.90207 6.37991C9.71558 6.20148 9.48724 6.05801 9.22321 5.95337C8.96008 5.84927 8.66849 5.79654 8.35657 5.79654C8.23407 5.79654 8.1156 5.8468 7.88681 5.99576C7.746 6.08758 7.5813 6.19378 7.39746 6.31125C7.24026 6.4114 7.02731 6.50525 6.76428 6.59021C6.50766 6.67324 6.2471 6.71536 5.98993 6.71536C5.73276 6.71536 5.47229 6.67324 5.21539 6.59021C4.95264 6.50534 4.73969 6.4115 4.58267 6.31134C4.40057 6.19498 4.23578 6.08877 4.09286 5.99567C3.86435 5.84671 3.74579 5.79645 3.62329 5.79645C3.31128 5.79645 3.01978 5.84927 2.75674 5.95346C2.49289 6.05792 2.26447 6.20138 2.07779 6.38C1.89954 6.55066 1.74051 6.75784 1.60538 6.99578C1.4751 7.22512 1.36963 7.46435 1.29199 7.70687C1.21701 7.94134 1.1543 8.19777 1.10559 8.46914C1.05734 8.73812 1.02457 8.99327 1.00836 9.22765C0.992432 9.45726 0.984375 9.69557 0.984375 9.93626C0.984375 10.5627 1.1835 11.0698 1.57617 11.4438C1.96399 11.8128 2.47714 12 3.10117 12H8.87924C9.50327 12 10.0162 11.8129 10.4041 11.4438C10.7969 11.07 10.996 10.5628 10.996 9.93617C10.9959 9.69438 10.9878 9.45589 10.9718 9.22737Z" fill="#181C21"/>
</g>
<defs>
<clipPath id="clip0">
<rect width="12" height="12" fill="white"/>
</clipPath>
</defs>
</svg>
